PathFileType	4	(X/Y/Z)	20_2_49_p0_0-739.trc
DataRate	CameraRate	NumFrames	NumMarkers	Units	OrigDataRate	OrigDataStartFrame	OrigNumFrames
59.0	59.0	6	27	m	59.0	277	740
Frame#	Time	RHip			RKnee			RAnkle			RBigToe			RSmallToe			RHeel			LHip			LKnee			LAnkle			LBigToe			LSmallToe			LHeel			Neck			Head			Nose			RShoulder			RElbow			RWrist			RThumb			RIndex			RPinky			LShoulder			LElbow			LWrist			LThumb			LIndex			LPinky			
		X1	Y1	Z1	X2	Y2	Z2	X3	Y3	Z3	X4	Y4	Z4	X5	Y5	Z5	X6	Y6	Z6	X7	Y7	Z7	X8	Y8	Z8	X9	Y9	Z9	X10	Y10	Z10	X11	Y11	Z11	X12	Y12	Z12	X13	Y13	Z13	X14	Y14	Z14	X15	Y15	Z15	X16	Y16	Z16	X17	Y17	Z17	X18	Y18	Z18	X19	Y19	Z19	X20	Y20	Z20	X21	Y21	Z21	X22	Y22	Z22	X23	Y23	Z23	X24	Y24	Z24	X25	Y25	Z25	X26	Y26	Z26	X27	Y27	Z27	
277	4.694915254237288	0.3093958522733026	0.4890770577138032	0.8752067498823153	0.32061577523157475	0.6125947145000799	1.306629703966389	0.3279976965880782	0.7436999696204437	1.750517669387326	0.31992735368198877	0.6130045456897529	1.7908933014171506	0.3814069078833765	0.6554967046987853	1.8011693796734338	0.3237602511324891	0.8584742284352018	1.8251055187450376	0.12257137689302565	0.5400778633072628	0.8831676838814441	0.12517221344011903	0.657711618353103	1.314593159222305	0.1430379471846114	0.7943628195743171	1.770505675634663	0.15479939096910705	0.5993990898900283	1.7820396458087653	0.11035967999907648	0.6357981296836488	1.7848374811674932	0.1593962800944918	0.8261731605605914	1.8135553095769348	0.20962911286429184	0.3486835178788889	0.36177814665836644	0.2095375428601279	0.2280431162060574	0.1422065934035798	0.20203127882325816	0.21149386163199052	0.28155057282400975	0.37598704603144695	0.4157454198111866	0.4227690490366738	0.42327943615149977	0.48913304113141576	0.6837084430282804	0.5362889170867551	0.333700280848969	0.6078382653848895	0.5881054797175066	0.2216482427004449	0.5260837474399441	0.615090997143711	0.24049473950803169	0.531553674740502	0.5994691528405128	0.26418057576456677	0.5605205370618062	0.0758546810837827	0.4110189151929095	0.4507092738812937	0.02035333105334831	0.5514805972016771	0.6556665995407366	-0.044868216326490844	0.43175293959084415	0.813152728959184	-0.035317261458571725	0.2865930000468488	0.890856032588146	-0.07522709587442127	0.29254755384591347	0.899043793782217	-0.07496061501932812	0.38256732220449075	0.9325381791955737
278	4.711864406779661	0.30953260562074025	0.4874612327808711	0.8745081226134099	0.3204554741692324	0.6134768955589698	1.3027644461074623	0.3250200329198536	0.7607540096361793	1.7565586005765328	0.3158458939433109	0.5985842280314728	1.7855829244952945	0.37686164065025346	0.6410998944239366	1.795956142764098	0.32482805025305483	0.8942850349678266	1.8379480200029512	0.12208143085887875	0.5107282647933408	0.8755965433738147	0.12415065796606709	0.6568852975469768	1.3058628569150714	0.1372607884024785	0.7962492685768053	1.7750106097674634	0.15484997049705648	0.5990852298461251	1.7821223937702775	0.11053599525471099	0.6359701496431895	1.7852932096323753	0.15497670043984182	0.8456677921343119	1.8207582727657101	0.20586650454029065	0.36109163995073246	0.3604392350415924	0.20957946823654955	0.22803196937480522	0.14255110612566294	0.2026947385861165	0.22328448637940676	0.2801626111527669	0.376079053960228	0.41491595187123587	0.4191792542848722	0.4370602540643596	0.5089467552035798	0.6807686257074379	0.5281732703669711	0.31171585234439947	0.5573042448127027	0.5744433777430554	0.25595146380292044	0.45516440781738404	0.6022519769819779	0.23822469048554615	0.4589812511762256	0.582707023748568	0.20168875208993028	0.5248885225173711	0.07127865421596223	0.4081070662332806	0.4469949843398001	0.02040743578327958	0.5517896526620922	0.651609008318885	-0.039863083635566184	0.43092834269504193	0.8005256798432927	-0.031178019332255245	0.27743605743896377	0.8571926972704007	-0.07030263477412008	0.2675492461702024	0.8834317865901152	-0.07874815009925791	0.36155434058939795	0.9105638232048101
279	4.728813559322034	0.30563864174212213	0.4911005166036433	0.8830074905484377	0.3170031059693356	0.6036206514434903	1.3046928607850012	0.3281905412156673	0.7439809278911506	1.7507214978216847	0.3232545646131194	0.5970674030759987	1.7848438071682204	0.3846962178522868	0.6399797050815279	1.7952319490185786	0.3237108921992116	0.8598339933804773	1.8256554971613563	0.12593969223743373	0.50131793755283	0.8823237474952438	0.12514479312891696	0.6612045695077701	1.3107180313287485	0.1371951945548344	0.7969410682512539	1.775249383700553	0.15062856295743055	0.5865532468192111	1.7810447107726677	0.10509110579636713	0.636239113727387	1.7891246760824144	0.15865176830520517	0.8625261442744226	1.8221302333723508	0.2022820734202904	0.37430592825649517	0.3626694067234345	0.2064712809787155	0.23853464908018893	0.1404749179669209	0.21317791819396573	0.23485351428851908	0.2816264958591963	0.37663085191188483	0.4072129257154931	0.4305341507726096	0.4578426684427397	0.4956510607971879	0.6804801986577365	0.5196390118174713	0.3205828458677778	0.5350708169389006	0.5446708126766651	0.21218733955980967	0.4297098680105104	0.5808001976698868	0.25766971202527705	0.40086355214166564	0.5760476883547311	0.22493494834817532	0.45594290690003786	0.07100957524547463	0.41178722574072585	0.4544158945195576	0.019672201793081826	0.5531462671814464	0.6554346616528267	-0.041769189601598554	0.4138089766390804	0.7733311608951721	-0.03069279885364799	0.2533928149575706	0.8271447590039427	-0.06605395189125939	0.2208861310177159	0.8496025638763807	-0.07126905645068954	0.3166723557592109	0.8900057897159367
280	4.745762711864407	0.30572041860374194	0.4907102614160902	0.8872335726940779	0.3160196044458103	0.6005150826523799	1.300076500415774	0.3279536492363796	0.7434547580602757	1.7503603947306707	0.3244498137330787	0.600690806553326	1.790230491356338	0.38014646979726496	0.6400552270711044	1.7953329832533667	0.31912635578668136	0.8744425958224947	1.8268273847107848	0.11937088322351141	0.49941257313501614	0.8832354931750419	0.125265765671536	0.6612989388981116	1.3107106485774553	0.137182749307497	0.7971320321402069	1.7753188281536354	0.15377293439060877	0.600768622705223	1.786454970534517	0.1046938378022707	0.6387805236350541	1.7860942806209825	0.1539318209581315	0.8607120664257946	1.8215034216977302	0.20624856806932465	0.3762034462120467	0.36242109758812435	0.2100515221698134	0.24865176977312387	0.14096039857600767	0.21688231072428174	0.24528754234589298	0.27695444444163975	0.37407783342014944	0.41824885728981515	0.4308148163498816	0.46799996316522424	0.47732954495432345	0.6716939454362185	0.5114648517549876	0.329438674862755	0.5091523909391303	0.4928008050252925	0.311135741073932	0.37396978087442645	0.5424438229910596	0.30357568819972924	0.363897580014466	0.5480502008428071	0.28386595894781486	0.4094631365609383	0.0670240309978404	0.4105305627580119	0.4545699461799129	0.020574973107163178	0.556683811486996	0.6559233128718648	-0.03630255381531616	0.4022168863672995	0.7530519766447595	-0.02586634266119677	0.24698829578852688	0.7772669327294741	-0.05711663174030524	0.2104266877049275	0.7964648260412229	-0.057163317934823876	0.26333539385466764	0.8433678133003981
281	4.762711864406779	0.30879526047985173	0.48944054242781143	0.8790488994489449	0.31491004747419327	0.5978053926705016	1.2955505973826307	0.3279214659475304	0.7437569185229985	1.7504447998040795	0.3204594056092584	0.6134453100820578	1.791269366643911	0.37728026318662183	0.656741790424355	1.8016269511628962	0.31874674186846813	0.8761534436327189	1.82231490225125	0.11822969907659664	0.49901505475780167	0.875082280596599	0.12424775279341732	0.6571258947128127	1.3102159916522775	0.13610614767301069	0.7944080420700265	1.770095460940481	0.15012112839547034	0.6162594843233575	1.7924817503174248	0.10059271825536996	0.6531975079729974	1.7960851766899706	0.14828879760221073	0.8472831217373086	1.821403719272733	0.20586123663779066	0.37581228982265	0.3621637010612963	0.2100874959690879	0.24862432440207252	0.14105203768258515	0.22066854671220376	0.24563107478253846	0.2768426551100438	0.3756292547351647	0.40345320872247004	0.4203430514832497	0.48126459682338296	0.45783858679223444	0.6475246510953715	0.5074910982210545	0.33279128267659364	0.46231181029954904	0.4678685227117631	0.3767925641308817	0.35635649174326395	0.5151738853392809	0.34549686411924035	0.3264865154316217	0.52891762225021	0.27632456043360776	0.3679631198823326	0.05974192257069439	0.409878384733227	0.4545895696158011	0.020240750291484158	0.5566240325348041	0.659800333767485	-0.03820042680082744	0.34814680301747114	0.7356653263784736	-0.03223081950243473	0.2339249607336787	0.7508719117114537	-0.06092305161701651	0.19189874450564826	0.7581461088279039	-0.05956325593955733	0.2074430623606645	0.8026761727417896
282	4.779661016949152	0.3080443407183536	0.4867016150105435	0.8672700568454372	0.31474118178477284	0.5978122636173392	1.2956475498199562	0.3269357202396113	0.7412135833051176	1.745903462874547	0.3276815666258789	0.6117967872144338	1.790358551279263	0.38408372748092223	0.638257041617019	1.7904253187556445	0.3206387219470756	0.8548311864125254	1.8109570051981645	0.11830910038356979	0.4989659050769493	0.871314306329696	0.12416448014060644	0.6574232239437152	1.3103171235044206	0.13598716786263268	0.7946192480660197	1.7702312662085442	0.14999650423151462	0.6171327159278208	1.7928347403892835	0.10040349404681037	0.6537341161804188	1.7963370317398186	0.14751024045165884	0.8584910584351206	1.8295743911057312	0.2056505014976195	0.3771083381706061	0.3586998198138209	0.21030721718732237	0.2489933868733911	0.14426714232509694	0.2244234171705947	0.23480638617114002	0.28125539859390214	0.36823730059930704	0.4159138411484453	0.4116337842684337	0.48265901852391685	0.4387723187212278	0.632041166538175	0.49834157536686025	0.3421164053712716	0.4427353312973678	0.4446288090979245	0.39473279198117056	0.3305639768259696	0.4840144514290087	0.3649022864695516	0.2929990324624834	0.5238626855029398	0.28488558892071597	0.3331605414893272	0.05960813422127591	0.4098881223598511	0.4545840227795362	0.02092289116617832	0.5535926340650555	0.6633628876042296	-0.0251378422282947	0.3302242136479122	0.7075403071791359	-0.028909055781483593	0.21623637207798754	0.6885621819923794	-0.0600595774380711	0.16457560359020135	0.6964494888006748	-0.04688828429700906	0.20958982520390781	0.754120363088934
